<?xml version="1.0" encoding="UTF-8" standalone="no"?>
<!-- Created with Inkscape (http://www.inkscape.org/) -->

<svg
   xmlns:dc="http://purl.org/dc/elements/1.1/"
   xmlns:cc="http://creativecommons.org/ns#"
   xmlns:rdf="http://www.w3.org/1999/02/22-rdf-syntax-ns#"
   xmlns:svg="http://www.w3.org/2000/svg"
   xmlns="http://www.w3.org/2000/svg"
   xmlns:sodipodi="http://sodipodi.sourceforge.net/DTD/sodipodi-0.dtd"
   xmlns:inkscape="http://www.inkscape.org/namespaces/inkscape"
   width="9.5818453in"
   height="4.6525049in"
   viewBox="0 0 243.37887 118.17363"
   version="1.1"
   id="svg8"
   inkscape:version="0.92.1 r15371"
   sodipodi:docname="types-of-fences.svg">
  <defs
     id="defs2" />
  <sodipodi:namedview
     id="base"
     pagecolor="#ffffff"
     bordercolor="#666666"
     borderopacity="1.0"
     inkscape:pageopacity="0.0"
     inkscape:pageshadow="2"
     inkscape:zoom="0.7"
     inkscape:cx="451.51344"
     inkscape:cy="104.54084"
     inkscape:document-units="mm"
     inkscape:current-layer="layer1"
     showgrid="false"
     inkscape:snap-nodes="false"
     units="in"
     width="9.5in"
     fit-margin-top="0.5"
     fit-margin-left="0.5"
     fit-margin-right="0.5"
     fit-margin-bottom="0.5"
     inkscape:window-width="1366"
     inkscape:window-height="716"
     inkscape:window-x="-8"
     inkscape:window-y="-8"
     inkscape:window-maximized="1" />
  <metadata
     id="metadata5">
    <rdf:RDF>
      <cc:Work
         rdf:about="">
        <dc:format>image/svg+xml</dc:format>
        <dc:type
           rdf:resource="http://purl.org/dc/dcmitype/StillImage" />
        <dc:title></dc:title>
      </cc:Work>
    </rdf:RDF>
  </metadata>
  <g
     inkscape:label="Layer 1"
     inkscape:groupmode="layer"
     id="layer1"
     transform="translate(-0.77485081,-20.056842)">
    <g
       id="g4763">
      <rect
         style="fill:none;stroke:#000000;stroke-width:0.16773574;stroke-opacity:1"
         y="32.840714"
         x="13.558719"
         height="5.388515"
         width="40.918278"
         id="rect4487" />
      <rect
         style="fill:none;stroke:#000000;stroke-width:0.16773574;stroke-opacity:1"
         y="32.84071"
         x="57.781937"
         height="5.388515"
         width="40.918278"
         id="rect4487-5" />
      <rect
         style="fill:none;stroke:#000000;stroke-width:0.16773574;stroke-opacity:1"
         y="32.840714"
         x="102.00513"
         height="5.388515"
         width="40.918278"
         id="rect4487-56" />
      <rect
         style="fill:none;stroke:#000000;stroke-width:0.16773574;stroke-opacity:1"
         y="32.840714"
         x="146.22836"
         height="5.388515"
         width="40.918278"
         id="rect4487-56-2" />
      <rect
         style="fill:none;stroke:#000000;stroke-width:0.16773574;stroke-opacity:1"
         y="32.840714"
         x="190.45157"
         height="5.388515"
         width="40.918278"
         id="rect4487-56-2-8" />
    </g>
    <g
       id="g4756"
       transform="translate(0.56697035,1.5875)">
      <rect
         style="fill:none;stroke:#000000;stroke-width:0.16773574;stroke-opacity:1"
         y="64.307228"
         x="14.314671"
         height="5.388515"
         width="40.918278"
         id="rect4487-1" />
      <rect
         style="fill:none;stroke:#000000;stroke-width:0.16773574;stroke-opacity:1"
         y="64.307228"
         x="83.956772"
         height="5.388515"
         width="40.918278"
         id="rect4487-56-6" />
      <rect
         style="fill:none;stroke:#000000;stroke-width:0.16773574;stroke-opacity:1"
         y="64.307228"
         x="153.78786"
         height="5.388515"
         width="40.918278"
         id="rect4487-56-2-8-8" />
      <rect
         style="fill:none;stroke:#000000;stroke-width:0.16773574;stroke-opacity:1"
         y="70.354858"
         x="49.088497"
         height="5.388515"
         width="40.918278"
         id="rect4487-1-8" />
      <rect
         style="fill:none;stroke:#000000;stroke-width:0.16773574;stroke-opacity:1"
         y="70.354851"
         x="118.73059"
         height="5.388515"
         width="40.918278"
         id="rect4487-56-6-6" />
      <rect
         style="fill:none;stroke:#000000;stroke-width:0.16773574;stroke-opacity:1"
         y="70.354858"
         x="188.56168"
         height="5.388515"
         width="40.918278"
         id="rect4487-56-2-8-8-8" />
    </g>
    <g
       id="g4748"
       transform="translate(0.92272851)">
      <path
         inkscape:connector-curvature="0"
         id="rect4487-1-7"
         d="m 15.961299,109.43194 c -0.209398,0 -0.378271,0.16836 -0.378271,0.37776 v 1.37769 c 0,-0.0849 0.0686,-0.15348 0.153479,-0.15348 h 3.196704 c 0.08488,0 0.153479,0.0686 0.153479,0.15348 v 1.87741 c 0,0.0849 -0.0686,0.15348 -0.153479,0.15348 h -3.196704 c -0.08488,0 -0.153479,-0.0686 -0.153479,-0.15348 v 1.37769 c 0,0.2094 0.168873,0.37776 0.378271,0.37776 h 40.162405 c 0.2094,0 0.377757,-0.16836 0.377757,-0.37776 v -1.26245 c 0.02671,0.0227 0.06022,0.0382 0.09818,0.0382 h 3.197222 c 0.08488,0 0.152961,-0.0686 0.152961,-0.15348 v -1.87741 c 0,-0.0849 -0.06808,-0.15348 -0.152961,-0.15348 h -3.197222 c -0.03788,0 -0.0715,0.0151 -0.09818,0.0377 v -1.26194 c 0,-0.2094 -0.168357,-0.37776 -0.377757,-0.37776 z"
         style="fill:none;stroke:#000000;stroke-width:0.16799998;stroke-miterlimit:4;stroke-dasharray:none;stroke-opacity:1" />
      <path
         id="rect4487-1-7-4"
         d="m 57.848862,109.43197 c -0.209399,0 -0.378271,0.16836 -0.378271,0.37776 v 1.37769 c 0,-0.0849 0.0686,-0.15348 0.153479,-0.15348 h 3.196704 c 0.08488,0 0.153479,0.0686 0.153479,0.15348 v 1.87741 c 0,0.0849 -0.0686,0.15348 -0.153479,0.15348 H 57.62407 c -0.08488,0 -0.153479,-0.0686 -0.153479,-0.15348 v 1.37769 c 0,0.2094 0.168872,0.37776 0.378271,0.37776 h 40.162407 c 0.209399,0 0.377756,-0.16836 0.377756,-0.37776 v -1.26245 c 0.02671,0.0227 0.06022,0.0382 0.09818,0.0382 h 3.197225 c 0.0849,0 0.15296,-0.0686 0.15296,-0.15348 v -1.87741 c 0,-0.0849 -0.0681,-0.15348 -0.15296,-0.15348 h -3.197225 c -0.03788,0 -0.0715,0.0151 -0.09818,0.0377 v -1.26193 c 0,-0.2094 -0.168357,-0.37776 -0.377756,-0.37776 z"
         style="fill:none;stroke:#000000;stroke-width:0.16799998;stroke-miterlimit:4;stroke-dasharray:none;stroke-opacity:1"
         inkscape:connector-curvature="0" />
      <path
         id="rect4487-1-7-0"
         d="m 99.73641,109.43197 c -0.209401,0 -0.378274,0.16836 -0.378274,0.37776 v 1.37769 c 0,-0.0849 0.0686,-0.15348 0.153479,-0.15348 h 3.196705 c 0.0849,0 0.15348,0.0686 0.15348,0.15348 v 1.8774 c 0,0.0849 -0.0686,0.15348 -0.15348,0.15348 h -3.196705 c -0.08487,0 -0.153479,-0.0686 -0.153479,-0.15348 v 1.3777 c 0,0.2094 0.168873,0.37775 0.378274,0.37775 h 40.16241 c 0.2094,0 0.37775,-0.16835 0.37775,-0.37775 v -1.26246 c 0.0267,0.0227 0.0602,0.0382 0.0982,0.0382 h 3.19723 c 0.0849,0 0.15296,-0.0686 0.15296,-0.15348 v -1.8774 c 0,-0.0849 -0.0681,-0.15348 -0.15296,-0.15348 h -3.19723 c -0.0379,0 -0.0715,0.0151 -0.0982,0.0377 v -1.26194 c 0,-0.2094 -0.16835,-0.37775 -0.37775,-0.37775 z"
         style="fill:none;stroke:#000000;stroke-width:0.16799998;stroke-miterlimit:4;stroke-dasharray:none;stroke-opacity:1"
         inkscape:connector-curvature="0" />
      <path
         id="rect4487-1-7-2"
         d="m 141.62398,109.43198 c -0.2094,0 -0.37828,0.16835 -0.37828,0.37775 v 1.3777 c 0,-0.0849 0.0686,-0.15348 0.15348,-0.15348 h 3.19671 c 0.0849,0 0.15347,0.0686 0.15347,0.15348 v 1.8774 c 0,0.0849 -0.0686,0.15348 -0.15347,0.15348 h -3.19671 c -0.0849,0 -0.15348,-0.0686 -0.15348,-0.15348 v 1.37769 c 0,0.2094 0.16888,0.37776 0.37828,0.37776 h 40.1624 c 0.2094,0 0.37776,-0.16836 0.37776,-0.37776 v -1.26245 c 0.0267,0.0227 0.0602,0.0382 0.0982,0.0382 h 3.19722 c 0.0849,0 0.15296,-0.0686 0.15296,-0.15348 v -1.8774 c 0,-0.0849 -0.0681,-0.15348 -0.15296,-0.15348 h -3.19724 c -0.0379,0 -0.0715,0.0151 -0.0982,0.0377 v -1.26194 c 0,-0.2094 -0.16836,-0.37776 -0.37776,-0.37776 z"
         style="fill:none;stroke:#000000;stroke-width:0.16799998;stroke-miterlimit:4;stroke-dasharray:none;stroke-opacity:1"
         inkscape:connector-curvature="0" />
      <path
         id="rect4487-1-7-8"
         d="m 183.51153,109.43197 c -0.2094,0 -0.37827,0.16836 -0.37827,0.37776 v 1.37769 c 0,-0.0849 0.0686,-0.15348 0.15348,-0.15348 h 3.1967 c 0.0849,0 0.15348,0.0686 0.15348,0.15348 v 1.8774 c 0,0.0849 -0.0686,0.15348 -0.15348,0.15348 h -3.1967 c -0.0849,0 -0.15348,-0.0686 -0.15348,-0.15348 v 1.3777 c 0,0.2094 0.16887,0.37775 0.37827,0.37775 h 40.16241 c 0.2094,0 0.37775,-0.16835 0.37775,-0.37775 v -1.26246 c 0.0267,0.0227 0.0602,0.0382 0.0982,0.0382 h 3.19723 c 0.0849,0 0.15296,-0.0686 0.15296,-0.15348 v -1.8774 c 0,-0.0849 -0.0681,-0.15348 -0.15296,-0.15348 h -3.19723 c -0.0379,0 -0.0715,0.0151 -0.0982,0.0377 v -1.26194 c 0,-0.2094 -0.16835,-0.37775 -0.37775,-0.37775 z"
         style="fill:none;stroke:#000000;stroke-width:0.16799998;stroke-miterlimit:4;stroke-dasharray:none;stroke-opacity:1"
         inkscape:connector-curvature="0" />
    </g>
    <text
       xml:space="preserve"
       style="font-style:normal;font-weight:normal;font-size:10.58333302px;line-height:1.25;font-family:sans-serif;letter-spacing:0px;word-spacing:0px;fill:#000000;fill-opacity:1;stroke:none;stroke-width:0.26458332"
       x="95.049591"
       y="46.023808"
       id="text4767"><tspan
         sodipodi:role="line"
         id="tspan4765"
         x="95.049591"
         y="46.023808"
         style="font-size:4.93888903px;stroke-width:0.26458332">(a) Traditional pickets</tspan></text>
    <text
       xml:space="preserve"
       style="font-style:normal;font-weight:normal;font-size:10.58333302px;line-height:1.25;font-family:sans-serif;letter-spacing:0px;word-spacing:0px;fill:#000000;fill-opacity:1;stroke:none;stroke-width:0.26458332"
       x="98.623535"
       y="84.444893"
       id="text4767-9"><tspan
         sodipodi:role="line"
         id="tspan4765-4"
         x="98.623535"
         y="84.444893"
         style="font-size:4.93888903px;stroke-width:0.26458332">(b) Board on board</tspan></text>
    <text
       xml:space="preserve"
       style="font-style:normal;font-weight:normal;font-size:10.58333302px;line-height:1.25;font-family:sans-serif;letter-spacing:0px;word-spacing:0px;fill:#000000;fill-opacity:1;stroke:none;stroke-width:0.26458332"
       x="93.953529"
       y="124.51037"
       id="text4767-9-4"><tspan
         sodipodi:role="line"
         id="tspan4765-4-2"
         x="93.953529"
         y="124.51037"
         style="font-size:4.93888903px;stroke-width:0.26458332">(c) Tongue and groove</tspan></text>
  </g>
</svg>
